# xmcd
#
# Track frame offsets:
#	150
#	15846
#	30276
#	41756
#	55085
#	62198
#	76466
#	89435
#	105412
#	116867
#	133664
#	146976
#	158271
#	171400
#
# Disc length: 2472
#
# Revision: 2
# Processed by: cddbd v1.5.1PL0 Copyright (c) Steve Scherf et al.
# Submitted via: CDex 1.50
# Normalized: r1:DSETVAR1,TDELIM( - )
#
DISCID=b209a60e
DTITLE=Various Artist - The Legends Collection - The Great Hall Of Fame Vol One
DYEAR=1900
DGENRE=Jazz
TTITLE0=Elvis Presley - Blue Suede Shoes
TTITLE1=Frank Sinatra - I'll Be Seeing You
TTITLE2=Dean Martin - 'A' You're Adorable
TTITLE3=Judy Garland - The Trolley Song
TTITLE4=Patsy Cline - I Love You Honey
TTITLE5=Bing Crosby - Zip A Dee Doo Dah
TTITLE6=Louis Armstrong - Jeepers Creepers
TTITLE7=James Cagney - I'm A Yankee Doodle Dandy
TTITLE8=Marilyn Monroe - My Heart Belongs To Daddy
TTITLE9=Nat King Cole - Get Your Kicks On Route 66
TTITLE10=Glenn Miller - Moonlight Serenade
TTITLE11=Billie Holiday - Summer Time
TTITLE12=Marlene Dietrich - Falling In Love Again
TTITLE13=Al Martino - Fly Me To The Moon and Let's Get Away From It All
EXTD=
EXTT0=
EXTT1=
EXTT2=
EXTT3=
EXTT4=
EXTT5=
EXTT6=
EXTT7=
EXTT8=
EXTT9=
EXTT10=
EXTT11=
EXTT12=
EXTT13=
PLAYORDER=
